# xmcd
# Copyright (C) 1995-1998 Ti Kan
#
# Track frame offsets:
#       150
#       11612
#       32260
#       56412
#       77615
#       115752
#       127215
#       171690
#       195077
#
# Disc length: 2761 seconds
#
# Revision: 0
# Processed by: cddbd v1.5.2PL0 Copyright (c) Steve Scherf et al.
# Submitted via: CD-Import v1.0
#
DISCID=6a0ac709
DTITLE=Rubén González - Introducing Rubén González
DYEAR=1997
DGENRE=
TTITLE0=Enganadora
TTITLE1=Cumbanchero
TTITLE2=Tres Lindas Cubanas
TTITLE3=Melodia Del Rio
TTITLE4=Mandinga
TTITLE5=Siboney
TTITLE6=Almendra
TTITLE7=Tumbao
TTITLE8=Cumo Siento Yo
EXTD=
EXTT0=
EXTT1=
EXTT2=
EXTT3=
EXTT4=
EXTT5=
EXTT6=
EXTT7=
EXTT8=
PLAYORDER=
